<svg xmlns="http://www.w3.org/2000/svg" width="144.937" height="119.813" viewBox="0 0 144.937 119.813">
  <metadata><?xpacket begin="﻿" id="W5M0MpCehiHzreSzNTczkc9d"?>
<x:xmpmeta xmlns:x="adobe:ns:meta/" x:xmptk="Adobe XMP Core 5.6-c140 79.160451, 2017/05/06-01:08:21        ">
   <rdf:RDF xmlns:rdf="http://www.w3.org/1999/02/22-rdf-syntax-ns#">
      <rdf:Description rdf:about=""/>
   </rdf:RDF>
</x:xmpmeta>
                                                                                                    
                                                                                                    
                                                                                                    
                                                                                                    
                                                                                                    
                                                                                                    
                                                                                                    
                                                                                                    
                                                                                                    
                                                                                                    
                                                                                                    
                                                                                                    
                                                                                                    
                                                                                                    
                                                                                                    
                                                                                                    
                                                                                                    
                                                                                                    
                                                                                                    
                                                                                                    
                           
<?xpacket end="w"?></metadata>
<defs>
    <style>
      .cls-1 {
        fill: #778287;
        fill-rule: evenodd;
      }
    </style>
  </defs>
  <path id="cloud" class="cls-1" d="M424.321,162.832a2.533,2.533,0,0,0,2.52-2.549v-10.2a2.521,2.521,0,1,0-5.041,0v10.2A2.533,2.533,0,0,0,424.321,162.832Zm52.926,38.235H467.166a2.549,2.549,0,0,0,0,5.1h10.081A2.549,2.549,0,0,0,477.247,201.067ZM423.06,267.341c15.029,0,27.724-13.18,27.724-28.783A28.992,28.992,0,0,0,444.7,221a29.446,29.446,0,1,0-47.123-31.589,27.662,27.662,0,0,0-26.61,21.719,26.828,26.828,0,0,0-8.392-1.352c-15.029,0-27.724,13.181-27.724,28.781s12.695,28.783,27.724,28.783H423.06ZM425.3,174.3a24.569,24.569,0,0,1,16,42.952,27.024,27.024,0,0,0-16.756-7.427A27.922,27.922,0,0,0,402.8,189.864,24.387,24.387,0,0,1,425.3,174.3Zm-85.41,64.263c0-12.837,10.386-23.683,22.683-23.683a22.237,22.237,0,0,1,9.318,2.079,2.505,2.505,0,0,0,2.289-.107,2.552,2.552,0,0,0,1.257-1.937,22.571,22.571,0,0,1,44.65-2.031,2.527,2.527,0,0,0,2.471,2.047,2.488,2.488,0,0,0,.5-0.051c12.3,0,22.683,10.846,22.683,23.683s-10.386,23.686-22.683,23.686H362.573C350.276,262.244,339.89,251.4,339.89,238.558ZM393.5,174.392a2.5,2.5,0,0,0,3.564,0,2.567,2.567,0,0,0,0-3.6l-7.13-7.209a2.5,2.5,0,0,0-3.564,0,2.569,2.569,0,0,0,0,3.6Zm62.373,0.747a2.5,2.5,0,0,0,1.782-.747l7.13-7.209a2.567,2.567,0,0,0,0-3.6,2.5,2.5,0,0,0-3.563,0l-7.131,7.209a2.569,2.569,0,0,0,0,3.6A2.5,2.5,0,0,0,455.876,175.139ZM457,228.412l7.128,7.211a2.5,2.5,0,0,0,3.564,0,2.569,2.569,0,0,0,0-3.6l-7.128-7.212a2.5,2.5,0,0,0-3.564,0A2.57,2.57,0,0,0,457,228.412Z" transform="translate(-334.844 -147.531)"/>
</svg>
