<svg xmlns="http://www.w3.org/2000/svg" width="21" height="21" viewBox="0 0 21 21">
  <metadata><?xpacket begin="﻿" id="W5M0MpCehiHzreSzNTczkc9d"?>
<x:xmpmeta xmlns:x="adobe:ns:meta/" x:xmptk="Adobe XMP Core 5.6-c140 79.160451, 2017/05/06-01:08:21        ">
   <rdf:RDF xmlns:rdf="http://www.w3.org/1999/02/22-rdf-syntax-ns#">
      <rdf:Description rdf:about=""/>
   </rdf:RDF>
</x:xmpmeta>
                                                                                                    
                                                                                                    
                                                                                                    
                                                                                                    
                                                                                                    
                                                                                                    
                                                                                                    
                                                                                                    
                                                                                                    
                                                                                                    
                                                                                                    
                                                                                                    
                                                                                                    
                                                                                                    
                                                                                                    
                                                                                                    
                                                                                                    
                                                                                                    
                                                                                                    
                                                                                                    
                           
<?xpacket end="w"?></metadata>
<defs>
    <style>
      .cls-1 {
        fill: #525a5d;
        fill-rule: evenodd;
      }
    </style>
  </defs>
  <path class="cls-1" d="M491.875,454.375v1.75a0.875,0.875,0,0,1-1.75,0v-1.75A0.875,0.875,0,0,1,491.875,454.375ZM491,471a0.875,0.875,0,0,0-.875.875v1.75a0.875,0.875,0,0,0,1.75,0v-1.75A0.875,0.875,0,0,0,491,471Zm-7.425-14.425a0.877,0.877,0,0,0,0,1.238l1.238,1.237a0.875,0.875,0,1,0,1.237-1.237l-1.237-1.238A0.877,0.877,0,0,0,483.575,456.575ZM495.95,468.95a0.874,0.874,0,0,0,0,1.237l1.237,1.238a0.875,0.875,0,1,0,1.238-1.238l-1.238-1.237A0.874,0.874,0,0,0,495.95,468.95ZM480.5,464a0.875,0.875,0,0,0,.875.875h1.75a0.875,0.875,0,0,0,0-1.75h-1.75A0.875,0.875,0,0,0,480.5,464Zm17.5,0a0.875,0.875,0,0,0,.875.875h1.75a0.875,0.875,0,0,0,0-1.75h-1.75A0.875,0.875,0,0,0,498,464Zm-14.425,7.425a0.877,0.877,0,0,0,1.238,0l1.237-1.238a0.875,0.875,0,1,0-1.237-1.237l-1.238,1.237A0.877,0.877,0,0,0,483.575,471.425ZM495.95,459.05a0.874,0.874,0,0,0,1.237,0l1.238-1.237a0.875,0.875,0,1,0-1.238-1.238l-1.237,1.238A0.874,0.874,0,0,0,495.95,459.05Zm0.3,4.95a5.25,5.25,0,1,1-5.25-5.25A5.249,5.249,0,0,1,496.25,464Zm-1.75,0a3.5,3.5,0,1,0-3.5,3.5A3.5,3.5,0,0,0,494.5,464Z" transform="translate(-480.5 -453.5)"/>
</svg>
