<svg xmlns="http://www.w3.org/2000/svg" width="21" height="19" viewBox="0 0 21 19">
  <metadata><?xpacket begin="﻿" id="W5M0MpCehiHzreSzNTczkc9d"?>
<x:xmpmeta xmlns:x="adobe:ns:meta/" x:xmptk="Adobe XMP Core 5.6-c140 79.160451, 2017/05/06-01:08:21        ">
   <rdf:RDF xmlns:rdf="http://www.w3.org/1999/02/22-rdf-syntax-ns#">
      <rdf:Description rdf:about=""/>
   </rdf:RDF>
</x:xmpmeta>
                                                                                                    
                                                                                                    
                                                                                                    
                                                                                                    
                                                                                                    
                                                                                                    
                                                                                                    
                                                                                                    
                                                                                                    
                                                                                                    
                                                                                                    
                                                                                                    
                                                                                                    
                                                                                                    
                                                                                                    
                                                                                                    
                                                                                                    
                                                                                                    
                                                                                                    
                                                                                                    
                           
<?xpacket end="w"?></metadata>
<defs>
    <style>
      .cls-1 {
        fill: #d5dbdc;
        fill-rule: evenodd;
      }
    </style>
  </defs>
  <path id="refresh" class="cls-1" d="M581,96.9v5.7a0.952,0.952,0,0,1-.955.95h-5.727a0.95,0.95,0,1,1,0-1.9h3.219c-1.294-1.256-2.315-2.248-2.592-2.524a7.6,7.6,0,1,0,0,10.748,7.541,7.541,0,0,0,1.8-2.84,0.954,0.954,0,0,1,1.8.632,9.4,9.4,0,0,1-.908,1.874,9.57,9.57,0,0,1-14.843,1.678A9.493,9.493,0,0,1,565.954,95.7a9.568,9.568,0,0,1,10.341,2.087c0.285,0.284,1.4,1.369,2.8,2.722V96.9A0.955,0.955,0,0,1,581,96.9Z" transform="translate(-560 -95)"/>
</svg>
