<svg xmlns="http://www.w3.org/2000/svg" width="34" height="23" viewBox="0 0 34 23">
  <metadata><?xpacket begin="﻿" id="W5M0MpCehiHzreSzNTczkc9d"?>
<x:xmpmeta xmlns:x="adobe:ns:meta/" x:xmptk="Adobe XMP Core 5.6-c140 79.160451, 2017/05/06-01:08:21        ">
   <rdf:RDF xmlns:rdf="http://www.w3.org/1999/02/22-rdf-syntax-ns#">
      <rdf:Description rdf:about=""/>
   </rdf:RDF>
</x:xmpmeta>
                                                                                                    
                                                                                                    
                                                                                                    
                                                                                                    
                                                                                                    
                                                                                                    
                                                                                                    
                                                                                                    
                                                                                                    
                                                                                                    
                                                                                                    
                                                                                                    
                                                                                                    
                                                                                                    
                                                                                                    
                                                                                                    
                                                                                                    
                                                                                                    
                                                                                                    
                                                                                                    
                           
<?xpacket end="w"?></metadata>
<defs>
    <style>
      .cls-1 {
        fill: #525a5d;
        stroke: #2e3335;
        stroke-linejoin: round;
        stroke-width: 1px;
        fill-rule: evenodd;
      }
    </style>
  </defs>
  <path class="cls-1" d="M279.779,464.3c-2.947,0-3.518-2.539-5.895-2.539-2.567,0-2.948,2.566-5.9,2.566s-3.328-2.566-5.9-2.566c-2.512,0-2.947,2.539-5.9,2.539s-2.947-3.143,0-3.143c2.513,0,2.948-2.49,5.9-2.49s3.41,2.517,5.9,2.517c2.542,0,2.945-2.517,5.9-2.517s3.355,2.463,5.895,2.463C282.727,461.129,282.727,464.3,279.779,464.3Zm0-5.667c-2.947,0-3.518-2.539-5.895-2.539-2.567,0-2.948,2.566-5.9,2.566s-3.328-2.566-5.9-2.566c-2.512,0-2.947,2.539-5.9,2.539s-2.947-3.143,0-3.143c2.513,0,2.948-2.49,5.9-2.49s3.41,2.517,5.9,2.517c2.542,0,2.945-2.517,5.9-2.517s3.355,2.463,5.895,2.463C282.727,455.462,282.727,458.632,279.779,458.632Zm-23.581,8.19c2.513,0,2.948-2.489,5.9-2.489s3.41,2.516,5.9,2.516c2.542,0,2.945-2.516,5.9-2.516s3.355,2.462,5.895,2.462c2.948,0,2.948,3.171,0,3.171s-3.518-2.54-5.895-2.54c-2.567,0-2.948,2.567-5.9,2.567s-3.328-2.567-5.9-2.567c-2.512,0-2.947,2.54-5.9,2.54S253.251,466.822,256.2,466.822Z" transform="translate(-251 -450)"/>
</svg>
